<svg width="17" height="17" viewBox="0 0 17 17" fill="none" xmlns="http://www.w3.org/2000/svg">
<mask id="path-1-inside-1" fill="white">
<path d="M16.8521 16.133L12.7208 12.0018C13.829 10.7277 14.5 9.06541 14.5 7.24856C14.5 3.24922 11.247 0 7.25143 0C3.25209 0 0.00286865 3.25299 0.00286865 7.24856C0.00286865 11.2441 3.25586 14.4971 7.25143 14.4971C9.06828 14.4971 10.7306 13.8262 12.0046 12.718L16.1359 16.8492C16.2339 16.9472 16.3658 17 16.494 17C16.6222 17 16.7541 16.951 16.8521 16.8492C17.0481 16.6532 17.0481 16.329 16.8521 16.133ZM1.01684 7.24856C1.01684 3.81086 3.81373 1.01774 7.24766 1.01774C10.6854 1.01774 13.4785 3.81463 13.4785 7.24856C13.4785 10.6825 10.6854 13.4831 7.24766 13.4831C3.81373 13.4831 1.01684 10.6863 1.01684 7.24856Z"/>
</mask>
<path d="M16.8521 16.133L12.7208 12.0018C13.829 10.7277 14.5 9.06541 14.5 7.24856C14.5 3.24922 11.247 0 7.25143 0C3.25209 0 0.00286865 3.25299 0.00286865 7.24856C0.00286865 11.2441 3.25586 14.4971 7.25143 14.4971C9.06828 14.4971 10.7306 13.8262 12.0046 12.718L16.1359 16.8492C16.2339 16.9472 16.3658 17 16.494 17C16.6222 17 16.7541 16.951 16.8521 16.8492C17.0481 16.6532 17.0481 16.329 16.8521 16.133ZM1.01684 7.24856C1.01684 3.81086 3.81373 1.01774 7.24766 1.01774C10.6854 1.01774 13.4785 3.81463 13.4785 7.24856C13.4785 10.6825 10.6854 13.4831 7.24766 13.4831C3.81373 13.4831 1.01684 10.6863 1.01684 7.24856Z" fill="#424242"/>
<path d="M16.8521 16.133L15.4379 17.5473L16.8521 16.133ZM12.7208 12.0018L11.2118 10.6892L9.98744 12.0968L11.3066 13.416L12.7208 12.0018ZM12.0046 12.718L13.4189 11.3037L12.0997 9.98457L10.6921 11.2089L12.0046 12.718ZM16.1359 16.8492L14.7217 18.2634L16.1359 16.8492ZM16.8521 16.8492L15.4379 15.435L15.4245 15.4484L15.4115 15.4619L16.8521 16.8492ZM7.24766 13.4831V15.4831V13.4831ZM18.2663 14.7188L14.135 10.5876L11.3066 13.416L15.4379 17.5473L18.2663 14.7188ZM14.2298 13.3144C15.6417 11.6912 16.5 9.5672 16.5 7.24856H12.5C12.5 8.56362 12.0164 9.76425 11.2118 10.6892L14.2298 13.3144ZM16.5 7.24856C16.5 2.14398 12.3509 -2 7.25143 -2V2C10.1431 2 12.5 4.35447 12.5 7.24856H16.5ZM7.25143 -2C2.14685 -2 -1.99713 2.1491 -1.99713 7.24856H2.00287C2.00287 4.35689 4.35734 2 7.25143 2V-2ZM-1.99713 7.24856C-1.99713 12.3487 2.15129 16.4971 7.25143 16.4971V12.4971C4.36043 12.4971 2.00287 10.1396 2.00287 7.24856H-1.99713ZM7.25143 16.4971C9.57007 16.4971 11.6941 15.6388 13.3172 14.227L10.6921 11.2089C9.76712 12.0135 8.56649 12.4971 7.25143 12.4971V16.4971ZM10.5904 14.1322L14.7217 18.2634L17.5501 15.435L13.4189 11.3037L10.5904 14.1322ZM14.7217 18.2634C15.1927 18.7345 15.8325 19 16.494 19V15C16.8992 15 17.2751 15.16 17.5501 15.435L14.7217 18.2634ZM16.494 19C17.1214 19 17.7881 18.7606 18.2927 18.2365L15.4115 15.4619C15.7201 15.1414 16.1229 15 16.494 15V19ZM18.2663 18.2634C19.2434 17.2864 19.2434 15.6959 18.2663 14.7188L15.4379 17.5473C14.8528 16.9622 14.8528 16.0201 15.4379 15.435L18.2663 18.2634ZM3.01684 7.24856C3.01684 4.91622 4.91752 3.01774 7.24766 3.01774V-0.982262C2.70995 -0.982262 -0.983162 2.70551 -0.983162 7.24856H3.01684ZM7.24766 3.01774C9.58 3.01774 11.4785 4.91842 11.4785 7.24856H15.4785C15.4785 2.71085 11.7907 -0.982262 7.24766 -0.982262V3.01774ZM11.4785 7.24856C11.4785 9.58028 9.57842 11.4831 7.24766 11.4831V15.4831C11.7923 15.4831 15.4785 11.7847 15.4785 7.24856H11.4785ZM7.24766 11.4831C4.91909 11.4831 3.01684 9.58247 3.01684 7.24856H-0.983162C-0.983162 11.79 2.70838 15.4831 7.24766 15.4831V11.4831Z" fill="black" mask="url(#path-1-inside-1)"/>
</svg>
